<?xml version="1.0" encoding="UTF-8"?>
<svg version="1.1" xmlns="http://www.w3.org/2000/svg" width="2000" height="2000">
<path d="M0 0 C660 0 1320 0 2000 0 C2000 660 2000 1320 2000 2000 C1340 2000 680 2000 0 2000 C0 1340 0 680 0 0 Z " fill="#000000" transform="translate(0,0)"/>
<path d="M0 0 C40.35810147 -0.09156497 80.71618939 -0.16204353 121.07437399 -0.20426132 C125.83954051 -0.20926412 130.60470683 -0.21444141 135.36987305 -0.21972656 C136.31852775 -0.2207758 137.26718245 -0.22182505 138.24458427 -0.22290608 C153.60300286 -0.24030905 168.96136153 -0.27184616 184.31974458 -0.30861118 C200.08006725 -0.34602359 215.84035855 -0.36823649 231.6007238 -0.37635398 C241.3249237 -0.38184112 251.04895423 -0.39916886 260.77310199 -0.43166587 C267.4422472 -0.45281745 274.1113049 -0.45919858 280.78048121 -0.45400551 C284.62769356 -0.45144473 288.47461004 -0.45535704 292.32176971 -0.4768219 C296.49643926 -0.49994351 300.67048046 -0.49194081 304.84519958 -0.48101807 C306.05630557 -0.49266943 307.26741156 -0.5043208 308.51521772 -0.51632524 C319.72158868 -0.43703721 326.53458437 2.85677343 334.6328125 10.48828125 C340.68246611 16.90730315 346.50501721 24.0701882 346.28076172 33.19238281 C345.73806689 38.61933109 344.38151366 43.88843871 343.09564209 49.17822266 C342.15894806 53.03780953 341.25796176 56.90573493 340.35546875 60.7734375 C340.06763519 62.00341461 340.06763519 62.00341461 339.77398682 63.25823975 C337.47769205 73.13761427 335.42878557 83.06794801 333.375 93 C332.6143061 96.66948408 331.85253374 100.33874279 331.08984375 104.0078125 C330.90798523 104.88274353 330.72612671 105.75767456 330.53875732 106.65911865 C328.84384058 114.79089287 327.05703036 122.89999962 325.23339844 131.00390625 C323.8389133 137.20755287 322.47211934 143.41622617 321.13671875 149.6328125 C320.97364227 150.39188904 320.8105658 151.15096558 320.64254761 151.93304443 C320.3064576 153.49799746 319.97040871 155.06295933 319.63439941 156.62792969 C316.4436054 171.48618737 313.14339185 186.31493252 309.70166016 201.1171875 C309.38810741 202.47129886 309.07478852 203.82546439 308.76171875 205.1796875 C308.61144226 205.8263739 308.46116577 206.4730603 308.30633545 207.13934326 C307.53148094 210.51657939 306.81572047 213.8964888 306.17431641 217.30175781 C306.04249466 217.9969754 305.91067291 218.69219299 305.77485657 219.40847778 C305.41542391 221.33342172 305.06829143 223.26065061 304.72192383 225.18798828 C304.48368896 226.11595215 304.2454541 227.04391602 304 228 C303.34 228.33 302.68 228.66 302 229 C299.95068359 227.97460938 299.95068359 227.97460938 297.3984375 226.34375 C296.44582031 225.74111328 295.49320313 225.13847656 294.51171875 224.51757812 C293.47660156 223.85177734 292.44148438 223.18597656 291.375 222.5 C289.1746128 221.10395602 286.97408822 219.70812855 284.7734375 218.3125 C283.63368691 217.58609776 282.49403852 216.85953514 281.35449219 216.1328125 C276.25560964 212.8909029 271.1276228 209.6961758 266 206.5 C263.99983512 205.25026385 261.9998357 204.00026284 260 202.75 C259.01 202.13125 258.02 201.5125 257 200.875 C254 199 251 197.125 248 195.25 C247.00943604 194.63092773 246.01887207 194.01185547 244.99829102 193.37402344 C243.00387783 192.1274543 241.00957394 190.88071028 239.01538086 189.63378906 C233.93079723 186.45483376 228.84418783 183.27919972 223.75390625 180.109375 C212.0980664 172.8463983 200.49631857 165.51321907 189 158 C189.47974694 153.01420582 190.04619539 148.21870711 191.375 143.375 C192.86301355 137.67454228 194.04363283 131.94851494 195.17578125 126.16796875 C196.12073052 121.3540098 197.11929655 116.55158461 198.125 111.75 C198.29572021 110.92749756 198.46644043 110.10499512 198.64233398 109.25756836 C198.80419189 108.48678955 198.9660498 107.71601074 199.1328125 106.921875 C199.27605957 106.23706055 199.41930664 105.55224609 199.56689453 104.84667969 C200 103 200 103 201 100 C170.31 100 139.62 100 108 100 C107.67 102.97 107.34 105.94 107 109 C106.44504023 111.86665309 105.8604316 114.70174527 105.21484375 117.546875 C104.95006226 118.74148849 104.95006226 118.74148849 104.67993164 119.9602356 C104.10335997 122.55778758 103.52039941 125.15386141 102.9375 127.75 C102.32188603 130.51613196 101.70795552 133.28263417 101.09413147 136.04916382 C100.67582978 137.93406787 100.25699283 139.81885321 99.83763123 141.70352173 C97.99438854 149.99463564 96.2051522 158.29683818 94.42501831 166.60168457 C91.51658081 180.16383331 88.48717216 193.69324729 85.36495972 207.20770264 C82.84889891 218.11199898 80.51184546 229.04142406 78.28857422 240.00976562 C76.18627452 250.29647215 73.84664876 260.52095294 71.47949219 270.74902344 C69.19244632 280.64232732 67.01714166 290.54729005 65 300.5 C62.67695013 311.96208124 60.11620393 323.35625207 57.47949219 334.74902344 C54.92758046 345.78808413 52.54982116 356.84981893 50.30004883 367.95507812 C47.9318013 379.54427175 45.29042677 391.06746173 42.62695312 402.59179688 C42.45992386 403.31475952 42.29289459 404.03772217 42.12080383 404.78259277 C41.66596873 406.74857003 41.20938708 408.71414298 40.75268555 410.6796875 C40.12607264 413.44385732 39.55585272 416.22073638 39 419 C69.69 419 100.38 419 132 419 C132.33 416.03 132.66 413.06 133 410 C133.54533476 407.08586739 134.11906999 404.19937443 134.75 401.3046875 C134.92401337 400.49059921 135.09802673 399.67651093 135.27731323 398.8377533 C135.84671176 396.18243613 136.42306331 393.52868866 137 390.875 C137.40126858 389.01392985 137.80247202 387.15284565 138.20361328 385.29174805 C141.3291231 370.84816045 144.61007907 356.4417111 147.9921875 342.05615234 C148.34658158 340.54399859 148.70075393 339.03179286 149.0546875 337.51953125 C149.22337341 336.80162415 149.39205933 336.08371704 149.56585693 335.34405518 C150.39268829 331.78331473 151.1664406 328.22107375 151.85253906 324.63037109 C151.985242 323.93618576 152.11794495 323.24200043 152.25466919 322.52677917 C152.60945026 320.63621209 152.95189163 318.74334116 153.29345703 316.8503418 C154 314 154 314 156 312 C166.54946079 318.38177258 177.01154105 324.88461805 187.40087891 331.52392578 C194.24127284 335.8915179 201.1122529 340.20752311 208 344.5 C216.58761804 349.85328448 225.13977824 355.25863461 233.66918945 360.70410156 C241.85419434 365.92292299 250.08338678 371.06986715 258.32226562 376.203125 C259.28197266 376.80125 260.24167969 377.399375 261.23046875 378.015625 C262.08020264 378.54446289 262.92993652 379.07330078 263.80541992 379.61816406 C265.55383421 380.71906793 267.28086613 381.85391075 269 383 C268.53592504 390.96504161 266.86203888 398.56914606 265.02075195 406.30831909 C264.10271651 410.17204104 263.20778673 414.04111024 262.3125 417.91015625 C262.12328979 418.72666153 261.93407959 419.54316681 261.73913574 420.38441467 C259.54966446 429.87852857 257.52402867 439.40701268 255.5 448.9375 C252.59903276 462.57555893 249.65537159 476.2025643 246.625 489.8125 C246.46169189 490.54677216 246.29838379 491.28104431 246.13012695 492.03756714 C244.59173223 498.94987215 243.03520505 505.85728521 241.44174194 512.75712585 C241.17171545 513.92656581 240.90168896 515.09600576 240.62347984 516.30088329 C240.41773149 517.19159181 240.21198315 518.08230032 240 519 C199.37008841 519.091551 158.74019027 519.16203643 118.11019614 519.20426132 C113.3136983 519.20926416 108.51720066 519.21444145 103.72070312 519.21972656 C102.76580488 519.2207758 101.81090664 519.22182505 100.82707208 519.22290608 C85.36451374 519.24031237 69.90201487 519.2718513 54.43949181 519.30861118 C38.57408279 519.34601436 22.70870492 519.36823454 6.84325361 519.37635398 C-2.94697399 519.38184304 -12.73703348 519.39918118 -22.52720934 519.43166587 C-29.24026564 519.45280605 -35.953235 519.45920117 -42.66632217 519.45400551 C-46.53973824 519.45144295 -50.41286051 519.45537731 -54.28622437 519.4768219 C-58.48751712 519.49991196 -62.68818458 519.49194927 -66.88952637 519.48101807 C-68.72222745 519.49849512 -68.72222745 519.49849512 -70.5919528 519.51632524 C-80.06789127 519.44957554 -86.19456893 517.22375612 -93.07348633 510.5847168 C-93.60611084 510.04113525 -94.13873535 509.49755371 -94.6875 508.9375 C-95.24912842 508.36749268 -95.81075684 507.79748535 -96.3894043 507.21020508 C-102.51838653 500.74336955 -106.3991539 494.26423736 -106.18041992 485.12329102 C-105.86685926 481.43311903 -104.9414283 477.94818982 -104 474.375 C-101.41550847 464.07418653 -99.22074727 453.70867729 -97.0625 443.3125 C-94.81075751 432.49560671 -92.52700585 421.69423173 -90 410.9375 C-87.2501649 399.22496206 -84.69987016 387.47429938 -82.171875 375.71240234 C-81.82688296 374.10773449 -81.4818303 372.50307966 -81.13671875 370.8984375 C-80.96320892 370.09167572 -80.7896991 369.28491394 -80.6109314 368.45370483 C-79.34615811 362.58283515 -78.0628369 356.71620865 -76.76953125 350.8515625 C-76.58307037 350.00597275 -76.3966095 349.160383 -76.20449829 348.28916931 C-75.82619343 346.57406709 -75.44784657 344.85897414 -75.06945801 343.14389038 C-71.94637076 328.9867317 -68.89578579 314.81750661 -65.9375 300.625 C-63.22292475 287.60253911 -60.35674228 274.62299218 -57.36395264 261.66174316 C-54.93425143 251.13859523 -52.59505422 240.60178583 -50.35449219 230.03637695 C-48.16014362 219.70087832 -45.89668598 209.3812357 -43.625 199.0625 C-40.55772311 185.12453446 -37.51733169 171.18117283 -34.51080322 157.22998047 C-32.6188365 148.4527231 -30.71423383 139.67848147 -28.78125 130.91015625 C-28.59395828 130.06045761 -28.40666656 129.21075897 -28.21369934 128.33531189 C-27.83312894 126.6090452 -27.45253907 124.88278281 -27.07192993 123.15652466 C-26.88319305 122.30049652 -26.69445618 121.44446838 -26.5 120.5625 C-26.31198822 119.70993622 -26.12397644 118.85737244 -25.93026733 117.97897339 C-23.14886691 105.35548768 -20.45371507 92.71600387 -17.8125 80.0625 C-15.40827943 68.54658226 -12.91796621 57.06074875 -10.22900391 45.60717773 C-7.79775395 35.2306828 -5.53179954 24.81951028 -3.27124023 14.40478516 C-3.12716736 13.74172363 -2.98309448 13.07866211 -2.83465576 12.39550781 C-2.44263829 10.59017176 -2.05172633 8.78459575 -1.66088867 6.97900391 C-1.14216205 4.64080583 -0.58706142 2.32141284 0 0 Z " fill="#FEFEFE" transform="translate(1052,626)"/>
<path d="M0 0 C66.33 0 132.66 0 201 0 C200.35481724 6.45182755 199.64270064 12.39626307 198.21484375 18.64453125 C198.03823212 19.43988785 197.86162048 20.23524445 197.67965698 21.05470276 C197.10412903 23.64182468 196.52076434 26.22711241 195.9375 28.8125 C195.32378338 31.56343857 194.71212553 34.31483041 194.10044861 37.06622314 C193.68322315 38.94198765 193.2653009 40.81759729 192.84669495 42.6930542 C190.96258605 51.13850617 189.13050453 59.5947186 187.31158447 68.05441284 C184.70218562 80.18730378 182.05718664 92.31138356 179.35424805 104.42382812 C177.09128385 114.56986542 174.85454908 124.72157631 172.625 134.875 C172.43353394 135.74686951 172.24206787 136.61873901 172.0447998 137.51702881 C169.104785 150.91080713 166.1982658 164.31161139 163.30764771 177.71612549 C161.02599287 188.29358196 158.71098248 198.86279828 156.35424805 209.42382812 C154.09128385 219.56986542 151.85454908 229.72157631 149.625 239.875 C149.43353394 240.74686951 149.24206787 241.61873901 149.0447998 242.51702881 C146.104785 255.91080713 143.1982658 269.31161139 140.30764771 282.71612549 C138.02678066 293.28992985 135.71317535 303.85563655 133.35644531 314.4128418 C131.06895823 324.66606742 128.81389889 334.92630308 126.5625 345.1875 C126.37008728 346.06410278 126.17767456 346.94070557 125.97943115 347.84387207 C123.98237304 356.94267596 121.98899603 366.04225663 120.0078125 375.14453125 C111.95124538 412.14626386 111.95124538 412.14626386 110 418 C127.82 418 145.64 418 164 418 C166.475 405.625 166.475 405.625 169 393 C170.65 385.41 172.3 377.82 174 370 C216.9 370 259.8 370 304 370 C301.39753261 384.31357062 298.70667869 398.54188793 295.625 412.75 C295.22662775 414.59958838 294.82835442 416.44919806 294.43017578 418.29882812 C292.10818848 429.05374321 289.69156721 439.78226541 287.1706543 450.49243164 C284.600362 461.51597167 282.37128401 472.60813119 280.10952759 483.69802856 C279.9663913 484.39967133 279.823255 485.10131409 279.67578125 485.82421875 C279.46313126 486.86665237 279.46313126 486.86665237 279.2461853 487.93014526 C277.91096039 494.46172873 276.53319803 500.9837456 275.125 507.5 C274.92189209 508.4489917 274.71878418 509.3979834 274.50952148 510.37573242 C274.32333252 511.23142822 274.13714355 512.08712402 273.9453125 512.96875 C273.70578857 514.07379883 273.70578857 514.07379883 273.46142578 515.20117188 C273 517 273 517 272 519 C168.05 519 64.1 519 -43 519 C-37.35538784 490.77693918 -37.35538784 490.77693918 -34.66131592 479.3288269 C-31.54556604 466.06973183 -28.64912876 452.77189338 -25.875 439.4375 C-23.46703952 427.87360082 -20.98209447 416.33869305 -18.28857422 404.8371582 C-16.13013944 395.61336949 -14.05356475 386.37259978 -12 377.125 C-11.82790009 376.35004181 -11.65580017 375.57508362 -11.47848511 374.77664185 C-9.05834128 363.86759236 -6.68780773 352.94878562 -4.36157227 342.01928711 C-2.09703502 331.39910055 0.2302701 320.79299481 2.5625 310.1875 C2.75979706 309.29028229 2.95709412 308.39306458 3.16036987 307.46865845 C3.55265772 305.68478894 3.94494592 303.90091952 4.3372345 302.11705017 C4.52629868 301.2572908 4.71536285 300.39753143 4.91015625 299.51171875 C5.09619919 298.66577652 5.28224213 297.81983429 5.47392273 296.94825745 C6.82534987 290.80086706 8.16725086 284.6514684 9.5 278.5 C12.90414455 262.7978787 16.36314131 247.10770485 19.81054688 231.41503906 C20.96273301 226.17003016 22.11429247 220.92488384 23.265625 215.6796875 C23.54265007 214.4177079 23.54265007 214.4177079 23.82527161 213.13023376 C24.75774618 208.8822148 25.68997619 204.63414235 26.62182617 200.38598633 C28.31497085 192.66833781 30.00977856 184.95107411 31.71313477 177.235672 C32.66405497 172.92819726 33.61360087 168.62042038 34.5625 164.3125 C34.84235748 163.04229507 34.84235748 163.04229507 35.12786865 161.74642944 C38.04389306 148.49756341 40.85577787 135.22893297 43.61672974 121.94696045 C46.17868376 109.63757324 48.93963177 97.38654326 51.91845703 85.17114258 C52.19286621 84.03056396 52.46727539 82.88998535 52.75 81.71484375 C53.11351562 80.23165649 53.11351562 80.23165649 53.484375 78.71850586 C54.3593127 74.10561226 54.59836124 71.90095457 51.9453125 67.90625 C51.01690308 66.76125096 50.0759804 65.62632283 49.125 64.5 C48.10733281 63.25190518 47.09042167 62.00319357 46.07421875 60.75390625 C45.55778809 60.12629395 45.04135742 59.49868164 44.50927734 58.85205078 C42.25985438 56.09175919 40.09692828 53.26837619 37.9375 50.4375 C37.10958688 49.3579104 36.28146204 48.27848313 35.453125 47.19921875 C35.04642578 46.6686084 34.63972656 46.13799805 34.22070312 45.59130859 C32.21342606 42.97462222 30.19983871 40.36279461 28.1875 37.75 C23.72699749 31.95445355 19.28340379 26.14602893 14.84570312 20.33300781 C12.22441035 16.90095762 9.59693062 13.47422394 6.94921875 10.0625 C6.48128906 9.45857422 6.01335938 8.85464844 5.53125 8.23242188 C4.2661726 6.6014282 2.99840902 4.97251906 1.73046875 3.34375 C0 1 0 1 0 0 Z " fill="#FEFEFE" transform="translate(750,798)"/>
</svg>
